# xmcd
#
# Track frame offsets: 
#        150
#        22153
#        44255
#        69053
#        83836
#        108709
#        129655
#        153109
#        165179
#        184798
#        210469
#        236760
#
# Disc length: 3379 seconds
#
# Revision: 0
# Processed by: cddbd v1.5.2PL0 Copyright (c) Steve Scherf et al.
# Submitted via: ExactAudioCopyFreeDBPlugin 1.0
#
DISCID=940d310c
DTITLE=Big Rude Jake - Butane Fumes and Bad Cologne
DYEAR=1993
DGENRE=Jazzy Blues
TTITLE0=7th. Avenue
TTITLE1=Front Street Belvedere
TTITLE2=Hard Deep Junction Blues
TTITLE3=Summer Haze
TTITLE4=Chill Bean's Final Carouse
TTITLE5=Magpie
TTITLE6=Three Wishes
TTITLE7=Blue Jake Jump
TTITLE8=Mad Palomino
TTITLE9=Schiela's Going Downtown
TTITLE10=When My Number Comes In
TTITLE11=Filthy Bastard Cabaret
EXTD=
EXTT0=
EXTT1=
EXTT2=
EXTT3=
EXTT4=
EXTT5=
EXTT6=
EXTT7=
EXTT8=
EXTT9=
EXTT10=
EXTT11=
PLAYORDER=
